# xmcd
# 
# Track frame offsets:
#     150
#     21170
#     40527
#     61332
#     79252
#     101742
#     132520
#     148070
#     163962
#     179197
# 
# Disc length: 2738
# 
# Revision: 0
# Processed by: cddbd v1.5.2PL0 Copyright (c) Steve Scherf et al.
# Submitted via: fre:ac v1.0.27
# 
DISCID=920ab00a
DTITLE=日倉士歳郎 - Dance in MY KITCHEN
DYEAR=1999
DGENRE=Blues
TTITLE0=MAMA, YOU'RE ALL THAT I NEED
TTITLE1=LIVE WIRE
TTITLE2=木漏れ陽
TTITLE3=KONA WINDS [INSTRUMENTAL]
TTITLE4=南からの子守唄
TTITLE5=COME ON IN MY KITCHEN
TTITLE6=NOBODY'S FAULT
TTITLE7=LAUNDRY BLUES
TTITLE8=CROSSROAD BLUES
TTITLE9=WANDERIN'
EXTD=
EXTT0=
EXTT1=
EXTT2=
EXTT3=
EXTT4=
EXTT5=
EXTT6=
EXTT7=
EXTT8=
EXTT9=
PLAYORDER=
